<?xml version="1.0" standalone="no"?>
<!DOCTYPE svg PUBLIC "-//W3C//DTD SVG 20010904//EN"
 "http://www.w3.org/TR/2001/REC-SVG-20010904/DTD/svg10.dtd">
<svg version="1.0" xmlns="http://www.w3.org/2000/svg"
 width="669.000000pt" height="373.000000pt" viewBox="0 0 669.000000 373.000000"
 preserveAspectRatio="xMidYMid meet">

<g transform="translate(0.000000,373.000000) scale(0.100000,-0.100000)"
fill="#000000" stroke="none">
<path d="M2415 3214 c-11 -2 -45 -9 -75 -15 -341 -66 -633 -267 -838 -578 -61
-93 -51 -95 22 -4 120 149 233 237 416 325 210 101 358 128 795 143 88 4 167
8 176 11 9 3 19 18 21 35 4 28 1 32 -34 46 -34 14 -37 17 -22 28 14 10 -26 12
-212 13 -126 0 -238 -2 -249 -4z"/>
<path d="M2515 2763 c-255 -10 -502 -81 -667 -190 -146 -98 -212 -161 -293
-283 -109 -164 -147 -284 -153 -486 -6 -209 29 -351 126 -518 111 -189 323
-356 548 -430 153 -50 228 -57 694 -66 245 -5 488 -13 540 -19 209 -23 394
-78 548 -162 39 -22 72 -38 72 -35 0 3 8 -2 18 -11 10 -10 33 -29 51 -43 18
-14 39 -31 47 -38 8 -7 14 -9 14 -3 0 5 -9 16 -20 24 -11 8 -17 17 -12 22 4 5
1 4 -7 0 -11 -6 -13 -4 -8 9 4 9 3 15 -2 12 -5 -3 -11 4 -14 15 -4 14 -11 20
-21 16 -10 -4 -13 -1 -9 9 3 7 -1 14 -8 14 -7 0 -10 3 -6 6 5 5 -53 59 -122
112 -43 33 -137 78 -227 108 -204 68 -448 99 -869 109 -318 8 -409 17 -545 56
-308 90 -504 253 -613 514 -73 174 -63 425 24 603 83 169 288 353 464 416 28
10 59 21 70 26 35 14 55 20 148 40 94 21 183 26 599 35 130 3 247 9 260 15 17
6 19 9 6 9 -17 1 -22 12 -19 40 2 7 -2 10 -8 6 -7 -4 -11 6 -11 28 l0 34 -97
6 c-93 7 -347 6 -498 0z m582 -29 c-3 -3 -12 -4 -19 -1 -8 3 -5 6 6 6 11 1 17
-2 13 -5z"/>
</g>
</svg>
